<svg xmlns="http://www.w3.org/2000/svg" width="20.8" height="24" viewBox="0 0 26 30" fill="none">
    <path d="M6.71076 29.6875H18.5522C19.4734 29.6875 20.2224 29.4031 20.7992 28.8343C21.376 28.2656 21.6859 27.5013 21.7289 26.5416L22.6199 7.15861H24.1695C24.4363 7.15861 24.6623 7.05863 24.8474 6.85866C25.0325 6.65871 25.125 6.42098 25.125 6.14547C25.125 5.86997 25.0303 5.63446 24.841 5.43895C24.6516 5.24343 24.4278 5.14567 24.1695 5.14567H1.09349C0.835229 5.14567 0.609247 5.24565 0.415549 5.44561C0.22185 5.64557 0.125 5.87885 0.125 6.14547C0.125 6.42098 0.22185 6.65871 0.415549 6.85866C0.609247 7.05863 0.835229 7.15861 1.09349 7.15861H2.64309L3.53409 26.5548C3.57714 27.5146 3.88491 28.2767 4.4574 28.841C5.02989 29.4053 5.78101 29.6875 6.71076 29.6875ZM6.89155 27.6746C6.52137 27.6746 6.21145 27.5457 5.96179 27.288C5.71214 27.0303 5.5787 26.7059 5.56148 26.3148L4.65755 7.15861H20.5409L19.6886 26.3148C19.6714 26.7148 19.5379 27.0414 19.2883 27.2947C19.0386 27.5479 18.7244 27.6746 18.3456 27.6746H6.89155ZM8.80271 25.395C9.04376 25.395 9.23746 25.3217 9.3838 25.1751C9.53015 25.0284 9.60333 24.8396 9.60333 24.6085L9.20301 10.3447C9.20301 10.1136 9.12769 9.92696 8.97704 9.78477C8.82639 9.64257 8.63484 9.57148 8.4024 9.57148C8.16135 9.57148 7.9655 9.64479 7.81484 9.79143C7.66419 9.93806 7.59317 10.1269 7.60178 10.358L7.98918 24.6085C7.99778 24.8485 8.07526 25.0396 8.22162 25.1818C8.36796 25.324 8.56166 25.395 8.80271 25.395ZM12.625 25.395C12.8747 25.395 13.077 25.3217 13.232 25.1751C13.3869 25.0284 13.4644 24.8396 13.4644 24.6085V10.358C13.4644 10.1269 13.3869 9.93806 13.232 9.79143C13.077 9.64479 12.8747 9.57148 12.625 9.57148C12.384 9.57148 12.186 9.64479 12.031 9.79143C11.8761 9.93806 11.7986 10.1269 11.7986 10.358V24.6085C11.7986 24.8396 11.8761 25.0284 12.031 25.1751C12.186 25.3217 12.384 25.395 12.625 25.395ZM16.4602 25.395C16.6927 25.395 16.8821 25.324 17.0284 25.1818C17.1748 25.0396 17.2523 24.8485 17.2609 24.6085L17.6484 10.358C17.6569 10.1269 17.588 9.93806 17.4417 9.79143C17.2953 9.64479 17.0973 9.57148 16.8477 9.57148C16.6152 9.57148 16.4258 9.64257 16.2795 9.78477C16.1332 9.92696 16.0557 10.118 16.047 10.358L15.6596 24.6085C15.651 24.8396 15.7199 25.0284 15.8663 25.1751C16.0126 25.3217 16.2106 25.395 16.4602 25.395ZM6.95612 6.09215H9.00932V3.23937C9.00932 2.86611 9.12769 2.56394 9.36443 2.33287C9.60118 2.10181 9.91325 1.98628 10.3006 1.98628H14.9236C15.311 1.98628 15.6231 2.10181 15.8598 2.33287C16.0966 2.56394 16.215 2.86611 16.215 3.23937V6.09215H18.2681V3.10606C18.2681 2.14625 17.9819 1.38862 17.4094 0.833172C16.8369 0.277724 16.0557 0 15.0656 0H10.1586C9.16858 0 8.38733 0.277724 7.81484 0.833172C7.24236 1.38862 6.95612 2.14625 6.95612 3.10606V6.09215Z" fill="#f56364"/>
</svg>